<?xml version="1.0" encoding="utf-8"?>
<!-- Svg Vector Icons : http://www.onlinewebfonts.com/icon -->
<!DOCTYPE svg PUBLIC "-//W3C//DTD SVG 1.1//EN" "http://www.w3.org/Graphics/SVG/1.1/DTD/svg11.dtd">
<svg version="1.1" xmlns="http://www.w3.org/2000/svg" xmlns:xlink="http://www.w3.org/1999/xlink" x="0px" y="0px" viewBox="0 0 256 256" enable-background="new 0 0 256 256" xml:space="preserve">
<metadata> Svg Vector Icons : http://www.onlinewebfonts.com/icon </metadata>
<g><g><path fill="#000000" d="M157.9,54c0-0.1,0.7-3.4-5.4-12.1c-3.3-4.6-7.2-7.7-11.2-9.6c3.4-5.3,9.8-12.5,19-13.6c0.8,2.9,3.5,5,6.6,5c3.8,0,6.9-3.1,6.9-6.9c0-3.8-3.1-6.9-6.9-6.9c-2.7,0-5,1.5-6.1,3.8v0c-12.4,0.9-20.3,10.4-24.2,16.7c-3.3-1-6.3-1.3-8.5-1.3c-1.4,0-3,0.1-4.7,0.4c-1.3,0.2-2.6,0.5-3.8,0.8c-3.9-6.3-11.8-15.7-24.2-16.6v0c-1.1-2.2-3.5-3.8-6.1-3.8c-3.8,0-6.9,3.1-6.9,6.9s3.1,6.9,6.9,6.9c3.2,0,5.8-2.1,6.6-5c9.2,1.1,15.5,8.2,19,13.5c-3,1.5-6.1,3.6-9,6.7c-0.2,0.2-0.4,0.4-0.6,0.6c-2.9,3-4.6,5.9-5.7,8.3c-1.3,2.7-1.6,4.8-1.7,5.7c0,0.4,0,0.6,0,0.6c-40.3,12.8-69.6,50.5-69.6,95.1c0,46.9,32,86.1,75.6,96.7l0,0l3.8-23.8l20.2,0l0,0l0,0l20.2,0l3.8,23.8l0,0.1c44-10.4,75.8-49.7,75.8-96.8C227.7,104.5,198.3,66.7,157.9,54z M99,236.8c-36.8-12.1-63.4-46.8-63.4-87.7c0-51,40.7-92.3,91.7-92.3L99,236.8z M156.7,236.8l-28.2-180c51,0,91.7,41.3,91.7,92.3C220.1,190.1,193.5,224.8,156.7,236.8z"/></g></g>
</svg>